# xmcd
#
# Track frame offsets: 
#        150
#        16235
#        25580
#        43700
#        57282
#        70122
#        83260
#        95742
#        113735
#        130790
#        142130
#        153200
#        166852
#        181517
#        193315
#        210772
#        229102
#        246387
#
# Disc length: 3481 seconds
#
# Revision: 0
# Processed by: cddbd v1.5.2PL0 Copyright (c) Steve Scherf et al.
# Submitted via: ExactAudioCopy v0.99pb5
#
DISCID=e00d9712
DTITLE=Various Artist - 75 greatest country songs
DYEAR=1900
DGENRE=Country
TTITLE0=forever and ever, amen
TTITLE1=kiss an angel good morning
TTITLE2=help me make it through the night
TTITLE3=there goes my everything
TTITLE4=i cn't stop loving you
TTITLE5=misty
TTITLE6=i can't help it (if i'm still in love with you)
TTITLE7=what she is (is a woman in love)
TTITLE8=buy me a rose
TTITLE9=take good care of her
TTITLE10=anita, you're dreaming
TTITLE11=she's got you
TTITLE12=sweet memories
TTITLE13=if you leave me tonight i'll cry
TTITLE14=years
TTITLE15=where do i put her memory
TTITLE16=faded love
TTITLE17=he stopped loving her today
EXTD=
EXTT0=
EXTT1=
EXTT2=
EXTT3=
EXTT4=
EXTT5=
EXTT6=
EXTT7=
EXTT8=
EXTT9=
EXTT10=
EXTT11=
EXTT12=
EXTT13=
EXTT14=
EXTT15=
EXTT16=
EXTT17=
PLAYORDER=
